<svg viewBox="0 0 1762 214" xmlns="http://www.w3.org/2000/svg" data-name="Layer 2" id="Layer_2">
  <defs>
    <style>
      .cls-1 {
        fill: none;
      }

      .cls-2 {
        stroke-width: 2px;
      }

      .cls-2, .cls-3 {
        fill: #232323;
        stroke: #232323;
        stroke-miterlimit: 10;
      }
    </style>
  </defs>
  <g data-name="Layer 1" id="Layer_1-2">
    <g>
      <path d="M12.3,135.2h.71c1.51,2.76,3.47,3.2,7.21,3.2h41.39c3.03,0,4.9-1.07,6.41-3.2h.71v15.67h-.71c-.53-6.32-3.38-9.97-11.04-9.97h-13.17v53.76c0,4.45,2.31,6.85,6.94,7.03v.71h-20.38v-.71c4.54-.18,6.85-2.58,6.85-7.03v-53.76h-13.17c-7.65,0-10.5,3.65-11.04,9.97h-.71v-15.67Z" class="cls-2"></path>
      <path d="M111.45,138.4v.71c-5.07,0-6.94,3.2-6.94,7.12v21.45h36.67v-21.45c0-3.92-2.05-7.12-6.94-7.12v-.71h20.38v.71c-4.98,0-6.85,3.2-6.85,7.12v48.51c0,4.09,1.96,6.94,6.85,6.94v.71h-20.38v-.71c4.36,0,6.94-2.4,6.94-6.94v-25.1h-36.67v25.1c0,4.09,2.4,6.94,6.94,6.94v.71h-20.38v-.71c4.72,0,6.85-2.85,6.85-6.94v-48.51c0-3.83-1.6-7.12-6.85-7.12v-.71h20.38Z" class="cls-2"></path>
      <path d="M216.65,138.4v10.06h-.62c0-5.25-3.29-8.1-10.5-8.1h-13.62v29.1h12.1c5.79,0,8.54-2.14,8.99-6.32h.62v14.51h-.62c-.98-5.16-3.38-6.23-9.7-6.23h-11.39v23.05c0,3.65,1.42,5.96,5.61,5.96h9.43c6.59,0,9.52-2.76,11.3-8.1h.62l-2.23,10.06h-38.18v-.71h.71c2.76,0,6.14-1.96,6.14-7.03v-48.06c0-5.16-2.58-7.48-5.88-7.48h-.98v-.71h38.18Z" class="cls-2"></path>
      <path d="M345.97,90.95v1.24c-8.06.31-11.93,4.96-11.93,12.4v81.68c0,9.46,4.65,12.71,15.19,12.71h10.08c12.86,0,16.12-4.34,20.3-14.88h1.24l-4.19,18.29h-66.34v-1.24h1.39c5.74,0,10.54-4.34,10.54-12.24v-84.17c0-7.59-3.72-12.25-11.93-12.55v-1.24h35.65Z" class="cls-3"></path>
      <path d="M475.7,205.34c-33.94,0-59.21-27.12-59.21-59.05s26.97-58.59,59.05-58.59,58.75,24.33,58.75,59.05c0,32.08-25.88,58.59-58.59,58.59ZM520.96,147.06c0-46.19-28.83-55.96-45.57-55.96-18.6,0-45.57,11.78-45.57,55.49,0,39.21,22.17,55.33,45.88,55.33,21.39,0,45.26-13.95,45.26-54.87Z" class="cls-3"></path>
      <path d="M636.44,112.34h-1.24c-1.71-11.78-10.7-20.3-22.94-20.3-13.49,0-21.86,10.23-21.86,23.25,0,12.25,5.58,18.45,23.71,28.05,18.29,9.61,27.75,17.83,27.75,32.71,0,12.71-9.46,28.83-33.17,28.83-10.69,0-17.67-3.1-21.23-4.81-1.4-.62-3.1-1.55-4.81-1.55-2.48,0-2.63,2.79-3.41,6.04h-1.24v-27.9h1.24c3.72,16.9,15.19,24.8,29.76,24.8,17.36,0,22.63-11.01,22.63-20,0-5.58-1.71-10.54-5.27-14.73-3.56-4.34-10.08-8.83-19.53-13.64-19.22-9.77-26.66-18.91-26.66-33.33,0-15.66,12.87-31,33.32-31,4.5,0,8.37.62,11.78,1.55s4.8,1.55,6.36,1.55c1.24,0,2.79-.62,3.56-3.41h1.24v23.87Z" class="cls-3"></path>
      <path d="M679.68,85.38h1.24c2.63,4.8,6.04,5.58,12.55,5.58h72.08c5.27,0,8.52-1.86,11.16-5.58h1.24v27.28h-1.24c-.93-11-5.89-17.36-19.22-17.36h-22.94v93.62c0,7.75,4.03,11.93,12.09,12.24v1.24h-35.5v-1.24c7.91-.31,11.94-4.49,11.94-12.24v-93.62h-22.94c-13.33,0-18.29,6.35-19.22,17.36h-1.24v-27.28Z" class="cls-3"></path>
      <path d="M919.79,90.95v1.24c-8.06.31-11.94,4.65-11.94,12.09v41.23l42.78-42.78c2.17-2.17,3.88-4.03,3.88-6.04,0-3.72-4.34-4.19-8.37-4.5v-1.24h30.84v1.24c-4.8.16-8.21.77-11.47,2.48-3.41,1.71-8.53,6.98-10.7,8.99l-37.04,36.58,43.25,48.82c4.65,5.43,6.82,7.29,10.07,9.3,2.64,1.55,5.27,2.48,10.7,2.79v1.24h-24.02l-49.91-56.42v42.94c0,7.59,3.72,11.93,11.94,12.24v1.24h-35.34v-1.24c7.75-.15,11.93-4.49,11.93-12.09v-84.94c0-7.29-3.88-11.62-11.93-11.93v-1.24h35.34Z" class="cls-3"></path>
      <path d="M1054.79,90.95v1.24c-8.06,0-11.93,4.8-11.93,11.93v84.79c0,7.59,4.5,12.09,11.93,12.24v1.24h-35.34v-1.24c7.28,0,11.93-4.34,11.93-12.09v-84.94c0-7.29-3.72-11.93-11.93-11.93v-1.24h35.34Z" class="cls-3"></path>
      <path d="M1094.01,85.38h1.24c2.63,4.8,6.04,5.58,12.55,5.58h72.08c5.27,0,8.52-1.86,11.16-5.58h1.24v27.28h-1.24c-.93-11-5.89-17.36-19.22-17.36h-22.94v93.62c0,7.75,4.03,11.93,12.09,12.24v1.24h-35.5v-1.24c7.91-.31,11.94-4.49,11.94-12.24v-93.62h-22.94c-13.33,0-18.29,6.35-19.22,17.36h-1.24v-27.28Z" class="cls-3"></path>
      <path d="M1327.28,89.25h1.24l-1.08,26.66h-1.24c-3.1-17.83-24.33-24.8-37.2-24.8-26.19,0-45.57,22.94-45.57,55.64s17.98,54.09,46.03,54.09c12.25,0,26.97-4.96,36.89-14.88v4.34c-11.47,8.99-21.39,15.04-39.21,15.04-36.89,0-57.66-28.83-57.66-57.2,0-33.01,26.35-60.45,59.52-60.45,7.29,0,14.88,1.39,19.84,2.63,6.82,1.71,9.61,2.95,13.02,2.95,3.88,0,4.81-1.08,5.43-4.03Z" class="cls-3"></path>
      <path d="M1404.47,90.95v1.24c-8.83,0-12.09,5.58-12.09,12.4v37.36h63.86v-37.36c0-6.82-3.56-12.4-12.09-12.4v-1.24h35.5v1.24c-8.68,0-11.94,5.58-11.94,12.4v84.47c0,7.13,3.41,12.09,11.94,12.09v1.24h-35.5v-1.24c7.59,0,12.09-4.18,12.09-12.09v-43.71h-63.86v43.71c0,7.13,4.18,12.09,12.09,12.09v1.24h-35.5v-1.24c8.22,0,11.94-4.96,11.94-12.09v-84.47c0-6.66-2.79-12.4-11.94-12.4v-1.24h35.5Z" class="cls-3"></path>
      <path d="M1587.68,90.95v17.51h-1.09c0-9.14-5.73-14.1-18.29-14.1h-23.71v50.68h21.08c10.08,0,14.88-3.72,15.66-11h1.08v25.26h-1.08c-1.71-8.99-5.89-10.85-16.89-10.85h-19.84v40.14c0,6.36,2.48,10.38,9.76,10.38h16.43c11.47,0,16.58-4.8,19.68-14.1h1.08l-3.87,17.51h-66.5v-1.24h1.24c4.8,0,10.69-3.41,10.69-12.24v-83.7c0-8.99-4.49-13.02-10.23-13.02h-1.71v-1.24h66.5Z" class="cls-3"></path>
      <path d="M1649.36,90.95l84.32,94.39v-72.54c0-12.71-.46-20.15-12.71-20.61v-1.24h28.05v1.24c-8.68.93-11.93,3.25-11.93,15.81v97.18h-.78l-85.56-95.48v66.34c0,19.06.77,24.18,12.4,25.11v1.24h-27.9v-1.24c8.99-.46,12.09-3.41,12.09-22.79v-72.69c-7.44-8.37-10.54-12.4-18.91-13.49v-1.24h20.92Z" class="cls-3"></path>
      <rect height="214" width="1762" class="cls-1"></rect>
    </g>
  </g>
</svg>